<?xml version="1.0" encoding="UTF-8"?>
<svg xmlns="http://www.w3.org/2000/svg" width="720" height="1040" viewBox="0 0 720 1040" role="img" aria-label="Language of Flowers cover">
  <defs>
    <linearGradient id="cover-bg" x1="0%" y1="0%" x2="100%" y2="100%">
      <stop offset="0%" stop-color="#4a2f43"/>
      <stop offset="52%" stop-color="#e6a4b4"/>
      <stop offset="100%" stop-color="#f5d38b"/>
    </linearGradient>
    <radialGradient id="cover-glow" cx="22%" cy="18%" r="68%">
      <stop offset="0%" stop-color="#fff7f0" stop-opacity="0.44"/>
      <stop offset="100%" stop-color="#fff7f0" stop-opacity="0"/>
    </radialGradient>
    <filter id="paper">
      <feTurbulence type="fractalNoise" baseFrequency="0.8" numOctaves="3" stitchTiles="stitch"/>
      <feColorMatrix type="saturate" values="0"/>
      <feComponentTransfer>
        <feFuncA type="table" tableValues="0 0.08"/>
      </feComponentTransfer>
    </filter>
    <filter id="soft-shadow" x="-20%" y="-20%" width="140%" height="140%">
      <feDropShadow dx="0" dy="18" stdDeviation="18" flood-color="#0b2d1d" flood-opacity="0.24"/>
    </filter>
  </defs>
  <rect width="720" height="1040" rx="22" fill="url(#cover-bg)"/>
  <rect width="720" height="1040" rx="22" fill="url(#cover-glow)"/>
  <rect width="720" height="1040" rx="22" filter="url(#paper)" opacity="0.52"/>
  <rect x="34" y="34" width="652" height="972" rx="18" fill="none" stroke="#ffffff" stroke-opacity="0.28" stroke-width="3"/>
  <path d="M0 0h62v1040H0z" fill="#071d14" opacity="0.26"/>
  <path d="M62 0h12v1040H62z" fill="#ffffff" opacity="0.2"/>
  <path d="M0 806 C172 742 276 824 438 758 C562 708 650 724 720 672 V1040 H0 Z" fill="#291825" opacity="0.1"/>
  <g filter="url(#soft-shadow)">
    
      
    <rect x="76" y="360" width="568" height="454" rx="18" fill="#fff7f0" opacity="0.88"/>
    <rect x="98" y="382" width="524" height="410" rx="12" fill="none" stroke="#291825" stroke-opacity="0.16" stroke-width="3"/>
  
      <rect x="180" y="448" width="360" height="286" rx="18" fill="#ffffff" opacity="0.94"/>
      <path d="M232 646 C294 548, 400 532, 486 622 C432 706, 310 726, 232 646Z" fill="#e6a4b4" opacity="0.72"/>
      <path d="M252 642 C322 606, 392 606, 466 642" fill="none" stroke="#291825" stroke-width="11" stroke-linecap="round" opacity="0.28"/>
      <circle cx="302" cy="560" r="42" fill="#f5d38b" opacity="0.72"/>
      <circle cx="438" cy="706" r="32" fill="#f5d38b" opacity="0.58"/>
      <path d="M530 452l54 160M562 452l-54 160" stroke="#291825" stroke-width="12" stroke-linecap="round" opacity="0.38"/>
    
  </g>
  
    <g font-family="Georgia, 'Times New Roman', serif">
      <rect x="66" y="58" width="588" height="306" rx="14" fill="#fff7f0" opacity="0.94"/>
      <rect x="88" y="82" width="544" height="258" rx="8" fill="none" stroke="#4a2f43" stroke-opacity="0.22" stroke-width="3"/>
      <text x="106" y="124" font-family="Arial, Helvetica, sans-serif" font-size="16" font-weight="900" letter-spacing="2" fill="#e6a4b4">Design</text>
      <text x="106" y="184" font-size="62" font-weight="900" fill="#291825">Language of</text>
<text x="106" y="244.76" font-size="62" font-weight="900" fill="#291825">Flowers</text>
      <text x="106" y="304.24" font-family="Arial, Helvetica, sans-serif" font-size="20" font-weight="800" fill="#4a2f43" opacity="0.82">A public domain illustrated reference...</text>
      <text x="94" y="934" font-family="Arial, Helvetica, sans-serif" font-size="26" font-weight="900" fill="#291825">Kate Greenaway</text>
      
      <text x="626" y="958" text-anchor="end" font-family="Arial, Helvetica, sans-serif" font-size="17" font-weight="900" fill="#291825" opacity="0.7">READ_MASTER</text>
    </g>
  
  
</svg>