<?xml version="1.0" encoding="UTF-8"?>
<svg xmlns="http://www.w3.org/2000/svg" width="720" height="1040" viewBox="0 0 720 1040" role="img" aria-label="Accessibility Pocket Guide cover">
  <defs>
    <linearGradient id="cover-bg" x1="0%" y1="0%" x2="100%" y2="100%">
      <stop offset="0%" stop-color="#284f5f"/>
      <stop offset="52%" stop-color="#f4a261"/>
      <stop offset="100%" stop-color="#cfe9d2"/>
    </linearGradient>
    <radialGradient id="cover-glow" cx="78%" cy="18%" r="68%">
      <stop offset="0%" stop-color="#fffaf0" stop-opacity="0.44"/>
      <stop offset="100%" stop-color="#fffaf0" stop-opacity="0"/>
    </radialGradient>
    <filter id="paper">
      <feTurbulence type="fractalNoise" baseFrequency="0.8" numOctaves="3" stitchTiles="stitch"/>
      <feColorMatrix type="saturate" values="0"/>
      <feComponentTransfer>
        <feFuncA type="table" tableValues="0 0.08"/>
      </feComponentTransfer>
    </filter>
    <filter id="soft-shadow" x="-20%" y="-20%" width="140%" height="140%">
      <feDropShadow dx="0" dy="18" stdDeviation="18" flood-color="#0b2d1d" flood-opacity="0.24"/>
    </filter>
  </defs>
  <rect width="720" height="1040" rx="22" fill="url(#cover-bg)"/>
  <rect width="720" height="1040" rx="22" fill="url(#cover-glow)"/>
  <rect width="720" height="1040" rx="22" filter="url(#paper)" opacity="0.52"/>
  <rect x="34" y="34" width="652" height="972" rx="18" fill="none" stroke="#ffffff" stroke-opacity="0.28" stroke-width="3"/>
  <path d="M0 0h62v1040H0z" fill="#071d14" opacity="0.26"/>
  <path d="M62 0h12v1040H62z" fill="#ffffff" opacity="0.2"/>
  <path d="M0 806 C172 742 276 824 438 758 C562 708 650 724 720 672 V1040 H0 Z" fill="#16323d" opacity="0.18"/>
  <g filter="url(#soft-shadow)">
    
      
    <rect x="76" y="360" width="568" height="454" rx="18" fill="#fffaf0" opacity="0.88"/>
    <rect x="98" y="382" width="524" height="410" rx="12" fill="none" stroke="#16323d" stroke-opacity="0.16" stroke-width="3"/>
  
      <rect x="216" y="424" width="288" height="330" rx="34" fill="#16323d"/>
      <rect x="244" y="470" width="232" height="228" rx="20" fill="#ffffff"/>
      <rect x="276" y="510" width="132" height="18" rx="9" fill="#f4a261"/>
      <rect x="276" y="558" width="160" height="18" rx="9" fill="#284f5f" opacity="0.28"/>
      <rect x="276" y="606" width="86" height="54" rx="14" fill="#cfe9d2"/>
      <circle cx="526" cy="462" r="54" fill="#cfe9d2" opacity="0.72"/>
      <rect x="142" y="676" width="78" height="78" rx="16" fill="#f4a261"/>
      <rect x="520" y="678" width="58" height="58" rx="14" fill="#284f5f" opacity="0.72"/>
    
  </g>
  
    <g font-family="Georgia, 'Times New Roman', serif">
      <rect x="66" y="58" width="588" height="306" rx="14" fill="#fffaf0" opacity="0.94"/>
      <rect x="88" y="82" width="544" height="258" rx="8" fill="none" stroke="#284f5f" stroke-opacity="0.22" stroke-width="3"/>
      <text x="106" y="124" font-family="Arial, Helvetica, sans-serif" font-size="16" font-weight="900" letter-spacing="2" fill="#f4a261">Design</text>
      <text x="106" y="184" font-size="62" font-weight="900" fill="#16323d">Accessibility</text>
<text x="106" y="244.76" font-size="62" font-weight="900" fill="#16323d">Pocket Guide</text>
      <text x="106" y="304.24" font-family="Arial, Helvetica, sans-serif" font-size="20" font-weight="800" fill="#284f5f" opacity="0.82">An original quick guide about readable text,...</text>
      <text x="94" y="934" font-family="Arial, Helvetica, sans-serif" font-size="26" font-weight="900" fill="#16323d">Read_Master Studio</text>
      
      <text x="626" y="958" text-anchor="end" font-family="Arial, Helvetica, sans-serif" font-size="17" font-weight="900" fill="#16323d" opacity="0.7">READ_MASTER</text>
    </g>
  
  
</svg>