<?xml version="1.0" encoding="UTF-8"?>
<svg xmlns="http://www.w3.org/2000/svg" width="720" height="1040" viewBox="0 0 720 1040" role="img" aria-label="Fighting for Fortune cover">
  <defs>
    <linearGradient id="cover-bg" x1="0%" y1="0%" x2="100%" y2="100%">
      <stop offset="0%" stop-color="#123d4b"/>
      <stop offset="52%" stop-color="#4b8da0"/>
      <stop offset="100%" stop-color="#e8c16a"/>
    </linearGradient>
    <radialGradient id="cover-glow" cx="22%" cy="18%" r="68%">
      <stop offset="0%" stop-color="#f4fbf8" stop-opacity="0.44"/>
      <stop offset="100%" stop-color="#f4fbf8" stop-opacity="0"/>
    </radialGradient>
    <filter id="paper">
      <feTurbulence type="fractalNoise" baseFrequency="0.8" numOctaves="3" stitchTiles="stitch"/>
      <feColorMatrix type="saturate" values="0"/>
      <feComponentTransfer>
        <feFuncA type="table" tableValues="0 0.08"/>
      </feComponentTransfer>
    </filter>
    <filter id="soft-shadow" x="-20%" y="-20%" width="140%" height="140%">
      <feDropShadow dx="0" dy="18" stdDeviation="18" flood-color="#0b2d1d" flood-opacity="0.24"/>
    </filter>
  </defs>
  <rect width="720" height="1040" rx="22" fill="url(#cover-bg)"/>
  <rect width="720" height="1040" rx="22" fill="url(#cover-glow)"/>
  <rect width="720" height="1040" rx="22" filter="url(#paper)" opacity="0.52"/>
  <rect x="34" y="34" width="652" height="972" rx="18" fill="none" stroke="#ffffff" stroke-opacity="0.28" stroke-width="3"/>
  <path d="M0 0h62v1040H0z" fill="#071d14" opacity="0.26"/>
  <path d="M62 0h12v1040H62z" fill="#ffffff" opacity="0.2"/>
  <path d="M0 806 C172 742 276 824 438 758 C562 708 650 724 720 672 V1040 H0 Z" fill="#062733" opacity="0.1"/>
  <g filter="url(#soft-shadow)">
    
      
    <rect x="76" y="360" width="568" height="454" rx="18" fill="#f4fbf8" opacity="0.88"/>
    <rect x="98" y="382" width="524" height="410" rx="12" fill="none" stroke="#062733" stroke-opacity="0.16" stroke-width="3"/>
  
      <path d="M76 660 C154 606 226 704 304 650 C386 592 456 704 536 654 C590 620 620 636 644 658 V814 H76 Z" fill="#4b8da0" opacity="0.78"/>
      <path d="M104 710 C190 674 244 744 330 706 C410 670 472 742 560 706 C604 688 626 694 644 704" fill="none" stroke="#ffffff" stroke-width="15" stroke-linecap="round" opacity="0.72"/>
      <path d="M356 520l118 96H238z" fill="#e8c16a"/>
      <path d="M358 462v166" stroke="#062733" stroke-width="14" stroke-linecap="round"/>
      <path d="M372 470 C436 494 466 544 474 600 C424 582 394 534 372 470Z" fill="#f4fbf8" opacity="0.9"/>
      <path d="M246 642 C312 704 420 704 498 642 C476 744 278 744 246 642Z" fill="#062733"/>
    
  </g>
  
    <g font-family="Georgia, 'Times New Roman', serif">
      <rect x="66" y="58" width="588" height="306" rx="14" fill="#062733" opacity="0.94"/>
      <rect x="88" y="82" width="544" height="258" rx="8" fill="none" stroke="#4b8da0" stroke-opacity="0.22" stroke-width="3"/>
      <text x="106" y="124" font-family="Arial, Helvetica, sans-serif" font-size="16" font-weight="900" letter-spacing="2" fill="#e8c16a">Literature</text>
      <text x="106" y="184" font-size="62" font-weight="900" fill="#ffffff">Fighting for</text>
<text x="106" y="244.76" font-size="62" font-weight="900" fill="#ffffff">Fortune</text>
      <text x="106" y="304.24" font-family="Arial, Helvetica, sans-serif" font-size="20" font-weight="800" fill="#f4fbf8" opacity="0.82">A public domain adventure story about courage,...</text>
      <text x="94" y="934" font-family="Arial, Helvetica, sans-serif" font-size="26" font-weight="900" fill="#ffffff">Roy Rockwood</text>
      
      <text x="626" y="958" text-anchor="end" font-family="Arial, Helvetica, sans-serif" font-size="17" font-weight="900" fill="#ffffff" opacity="0.7">READ_MASTER</text>
    </g>
  
  
</svg>